<?xml version="1.0" encoding="UTF-8"?>
<svg width="18px" height="18px" viewBox="0 0 18 18" version="1.1" xmlns="http://www.w3.org/2000/svg" xmlns:xlink="http://www.w3.org/1999/xlink">
    <!-- Generator: Sketch 51.3 (57544) - http://www.bohemiancoding.com/sketch -->
    <title>instagram</title>
    <desc>Created with Sketch.</desc>
    <defs>
        <polygon id="path-1" points="3.93873085e-05 0.0284376368 17.9715624 0.0284376368 17.9715624 17.9976368 3.93873085e-05 17.9976368"></polygon>
    </defs>
    <g id="Symbols" stroke="none" stroke-width="1" fill="none" fill-rule="evenodd">
        <g id="Footer" transform="translate(-1252.000000, -31.000000)">
            <g id="Group" transform="translate(1222.000000, 31.000000)">
                <g id="instagram" transform="translate(30.000000, 0.000000)">
                    <g id="Group-3">
                        <mask id="mask-2" fill="white">
                            <use xlink:href="#path-1"></use>
                        </mask>
                        <g id="Clip-2"></g>
                        <path d="M8.98582057,0.0283588621 C6.54542232,0.0283588621 6.23942232,0.0386389497 5.28101094,0.0824376368 C4.32452954,0.126118162 3.67133042,0.277995624 3.09982057,0.500100656 C2.50889278,0.729728665 2.00776805,1.03698906 1.50821882,1.53653829 C1.00866958,2.03608753 0.70140919,2.53725164 0.471820569,3.12814004 C0.249597374,3.69972867 0.0977199125,4.35292779 0.0541181619,5.3093698 C0.0103588621,6.26778118 3.93873085e-05,6.57374179 3.93873085e-05,9.01414004 C3.93873085e-05,11.4546171 0.0103588621,11.7605777 0.0541181619,12.7189891 C0.0977199125,13.6754311 0.249597374,14.3286302 0.471820569,14.9002188 C0.70140919,15.4911072 1.00866958,15.9922713 1.50821882,16.4918206 C2.00776805,16.9913698 2.50889278,17.2986302 3.09982057,17.5282582 C3.67133042,17.7503632 4.32452954,17.9022407 5.28101094,17.9459212 C6.23942232,17.9896411 6.54542232,18 8.98582057,18 C11.4262188,18 11.7322582,17.9896411 12.6906696,17.9459212 C13.6471116,17.9022407 14.3003107,17.7503632 14.87186,17.5282582 C15.4627877,17.2986302 15.9638731,16.9913698 16.4634223,16.4918206 C16.9629716,15.9922713 17.2702319,15.4911072 17.49986,14.9002188 C17.7220438,14.3286302 17.8739212,13.6754311 17.9175624,12.7189891 C17.9613217,11.7605777 17.9716018,11.4546171 17.9716018,9.01414004 C17.9716018,6.57374179 17.9613217,6.26778118 17.9175624,5.3093698 C17.8739212,4.35292779 17.7220438,3.69972867 17.49986,3.12814004 C17.2702319,2.53725164 16.9629716,2.03608753 16.4634223,1.53653829 C15.9638731,1.03698906 15.4627877,0.729728665 14.87186,0.500100656 C14.3003107,0.277995624 13.6471116,0.126118162 12.6906696,0.0824376368 C11.7322582,0.0386389497 11.4262188,0.0283588621 8.98582057,0.0283588621 M8.98582057,1.64741357 C11.3851379,1.64741357 11.6692779,1.65655142 12.6168578,1.6997593 C13.4929497,1.73973742 13.9687484,1.88617943 14.2853829,2.009186 C14.7048578,2.17221007 15.0042013,2.36694092 15.3185908,2.6813698 C15.6330985,2.99583807 15.8278293,3.29514223 15.9907746,3.71457768 C16.1137812,4.03121225 16.2602232,4.50705033 16.3002013,5.38310284 C16.3434092,6.33068271 16.3525864,6.61482276 16.3525864,9.01414004 C16.3525864,11.4135361 16.3434092,11.6976761 16.3002013,12.6451772 C16.2602232,13.5213085 16.1137812,13.9971466 15.9907746,14.3137812 C15.8278293,14.7331772 15.6330985,15.0325208 15.3185908,15.3469891 C15.0042013,15.6614179 14.7048578,15.8561488 14.2853829,16.0191335 C13.9687484,16.1421794 13.4929497,16.2886214 12.6168578,16.3285208 C11.6694354,16.3718074 11.3853348,16.3809059 8.98582057,16.3809059 C6.58630635,16.3809059 6.30220569,16.3718074 5.35478337,16.3285208 C4.47873085,16.2886214 4.00289278,16.1421794 3.68625821,16.0191335 C3.26682276,15.8561488 2.96747921,15.6614179 2.65305033,15.3469891 C2.33866083,15.0325208 2.14392998,14.7331772 1.98090591,14.3137812 C1.85785996,13.9971466 1.71145733,13.5213085 1.67143982,12.6451772 C1.62827133,11.6976761 1.61909409,11.4135361 1.61909409,9.01414004 C1.61909409,6.61482276 1.62827133,6.33068271 1.67143982,5.38310284 C1.71145733,4.50705033 1.85785996,4.03121225 1.98090591,3.71457768 C2.14392998,3.29514223 2.33866083,2.99583807 2.65305033,2.6813698 C2.96747921,2.36694092 3.26682276,2.17221007 3.68625821,2.009186 C4.00289278,1.88617943 4.47873085,1.73973742 5.35478337,1.6997593 C6.30236324,1.65655142 6.58650328,1.64741357 8.98582057,1.64741357" id="Fill-1" fill="#FFFFFF" mask="url(#mask-2)"></path>
                    </g>
                    <path d="M8.98582057,12.0094267 C7.331593,12.0094267 5.99053392,10.668407 5.99053392,9.01414004 C5.99053392,7.35991247 7.331593,6.01889278 8.98582057,6.01889278 C10.6400875,6.01889278 11.9811072,7.35991247 11.9811072,9.01414004 C11.9811072,10.668407 10.6400875,12.0094267 8.98582057,12.0094267 M8.98582057,4.39983807 C6.43742232,4.39983807 4.3715186,6.46578118 4.3715186,9.01414004 C4.3715186,11.5626171 6.43742232,13.6284814 8.98582057,13.6284814 C11.5342188,13.6284814 13.6001225,11.5626171 13.6001225,9.01414004 C13.6001225,6.46578118 11.5342188,4.39983807 8.98582057,4.39983807" id="Fill-4" fill="#FFFFFF"></path>
                    <path d="M14.8607921,4.21751422 C14.8607921,4.81301094 14.3780219,5.29582057 13.7824858,5.29582057 C13.1869891,5.29582057 12.7041794,4.81301094 12.7041794,4.21751422 C12.7041794,3.62197812 13.1869891,3.13920788 13.7824858,3.13920788 C14.3780219,3.13920788 14.8607921,3.62197812 14.8607921,4.21751422" id="Fill-5" fill="#FFFFFF"></path>
                </g>
            </g>
        </g>
    </g>
</svg>