<?xml version="1.0" encoding="UTF-8"?><!DOCTYPE svg PUBLIC "-//W3C//DTD SVG 1.1//EN" "http://www.w3.org/Graphics/SVG/1.1/DTD/svg11.dtd"><svg xmlns="http://www.w3.org/2000/svg" xmlns:xlink="http://www.w3.org/1999/xlink"><defs><path id="instagram-a" d="M0 .028h17.972v17.97H0z"/></defs><symbol id="facebook" viewBox="0 0 18 18"><title>facebook</title><path d="M16.2 0H1.8C.81 0 0 .81 0 1.8v14.4c0 .99.81 1.8 1.8 1.8h14.4c.99 0 1.8-.81 1.8-1.8V1.8c0-.99-.81-1.8-1.8-1.8zm-.9 1.8v2.7h-1.8c-.54 0-.9.36-.9.9v1.8h2.7v2.7h-2.7v6.3H9.9V9.9H8.1V7.2h1.8V4.95c0-1.71 1.44-3.15 3.15-3.15h2.25z" fill="#FFF" fill-rule="nonzero"/></symbol><symbol id="instagram" viewBox="0 0 18 18"><title>instagram</title><g fill="none" fill-rule="evenodd"><g><mask id="instagram-b" fill="#fff"><use xlink:href="#instagram-a"/></mask><path d="M8.986.028c-2.44 0-2.747.01-3.705.054C4.325.126 3.671.278 3.1.5c-.591.23-1.092.537-1.592 1.037-.5.5-.807 1-1.036 1.591C.25 3.7.098 4.353.054 5.31.01 6.268 0 6.574 0 9.014c0 2.44.01 2.747.054 3.705.044.956.196 1.61.418 2.181.23.591.537 1.092 1.036 1.592.5.5 1 .807 1.592 1.036.571.222 1.225.374 2.181.418.958.044 1.264.054 3.705.054 2.44 0 2.746-.01 3.705-.054.956-.044 1.61-.196 2.18-.418a4.404 4.404 0 0 0 1.592-1.036c.5-.5.807-1 1.037-1.592.222-.571.374-1.225.418-2.181.043-.958.054-1.264.054-3.705 0-2.44-.01-2.746-.054-3.705-.044-.956-.196-1.61-.418-2.18a4.405 4.405 0 0 0-1.037-1.592c-.5-.5-1-.807-1.591-1.037C14.3.278 13.647.126 12.69.082 11.732.04 11.426.028 8.986.028m0 1.62c2.4 0 2.683.009 3.63.052.877.04 1.353.186 1.67.31.419.162.718.357 1.033.671.314.315.509.614.672 1.034.123.316.27.792.31 1.668.042.948.052 1.232.052 3.631 0 2.4-.01 2.684-.053 3.631-.04.876-.186 1.352-.31 1.669-.162.42-.357.719-.671 1.033-.315.314-.614.51-1.034.672-.316.123-.792.27-1.668.31-.948.043-1.232.052-3.631.052-2.4 0-2.684-.01-3.631-.052-.876-.04-1.352-.187-1.669-.31a2.784 2.784 0 0 1-1.033-.672 2.785 2.785 0 0 1-.672-1.033c-.123-.317-.27-.793-.31-1.669-.043-.947-.052-1.231-.052-3.63 0-2.4.01-2.684.052-3.632.04-.876.187-1.352.31-1.668.163-.42.358-.72.672-1.034.314-.314.614-.509 1.033-.672.317-.123.793-.27 1.669-.31.947-.042 1.232-.052 3.63-.052" fill="#FFF" mask="url(#instagram-b)"/></g><path d="M8.986 12.01a2.995 2.995 0 1 1 0-5.991 2.995 2.995 0 0 1 0 5.99m0-7.61a4.614 4.614 0 1 0 0 9.23 4.614 4.614 0 0 0 0-9.23M14.86 4.218a1.078 1.078 0 1 1-2.156 0 1.078 1.078 0 0 1 2.157 0" fill="#FFF"/></g></symbol><symbol id="strava" viewBox="0 0 13 18"><title>strava</title><g fill="#FFF" fill-rule="nonzero"><path d="M8.866 13.087L7.298 10H5l3.866 7.629L12.729 10h-2.3"/><path d="M5.25 6.172l2.127 4.198h3.128L5.25 0 0 10.371h3.126"/></g></symbol></svg>